<?xml version="1.0" encoding="UTF-8" standalone="no"?>
<svg
   xmlns:dc="http://purl.org/dc/elements/1.1/"
   xmlns:cc="http://creativecommons.org/ns#"
   xmlns:rdf="http://www.w3.org/1999/02/22-rdf-syntax-ns#"
   xmlns:svg="http://www.w3.org/2000/svg"
   xmlns="http://www.w3.org/2000/svg"
   xmlns:sodipodi="http://sodipodi.sourceforge.net/DTD/sodipodi-0.dtd"
   xmlns:inkscape="http://www.inkscape.org/namespaces/inkscape"
   version="1.1"
   viewBox="0 0 16 16"
   id="svg825"
   sodipodi:docname="capybara_transparent.svg"
   inkscape:version="0.92.2 2405546, 2018-03-11"
   inkscape:export-filename="/home/calmbit/go/src/github.com/CalmBit/capybara/public/img/avatar/missing.png"
   inkscape:export-xdpi="1536"
   inkscape:export-ydpi="1536">
  <sodipodi:namedview
     pagecolor="#ffffff"
     bordercolor="#666666"
     borderopacity="1"
     objecttolerance="10"
     gridtolerance="10"
     guidetolerance="10"
     inkscape:pageopacity="0"
     inkscape:pageshadow="2"
     inkscape:window-width="1366"
     inkscape:window-height="744"
     id="namedview827"
     showgrid="false"
     inkscape:zoom="22.627417"
     inkscape:cx="-1.26657"
     inkscape:cy="9.5695086"
     inkscape:window-x="0"
     inkscape:window-y="24"
     inkscape:window-maximized="0"
     inkscape:current-layer="svg825"
     showguides="false" />
  <metadata
     id="metadata831">
    <rdf:RDF>
      <cc:Work
         rdf:about="">
        <dc:format>image/svg+xml</dc:format>
        <dc:type
           rdf:resource="http://purl.org/dc/dcmitype/StillImage" />
        <dc:title></dc:title>
      </cc:Work>
    </rdf:RDF>
  </metadata>
  <defs
     id="defs829">
    <mask
       maskUnits="userSpaceOnUse"
       id="mask1574">
      <g
         id="g1584"
         transform="translate(0,-1036.4)">
        <path
           id="path1576"
           d="m 12.627,1040.2 c 0,0 -2.8747,-1.1157 -8.3338,1.7678 -3.7984,2.0063 -4.312,3.3962 -4.2931,4.2302 0.028481,5.8575 5.0934,6.0636 9.3123,4.798 1.6018,0.1967 1.6099,1.389 1.6099,1.389 h 5.0778 v -13.953 l -0.8478,-0.126 z"
           inkscape:connector-curvature="0"
           style="fill:#e4e6ef;fill-rule:evenodd" />
        <ellipse
           id="ellipse1578"
           cx="-341.95001"
           cy="984.98999"
           transform="rotate(-19.624)"
           ry="0.61556"
           rx="1.8625"
           style="fill:#9da0c1" />
        <path
           id="path1580"
           d="m 14.931,1040.8 c 0,0 -0.66291,2.3359 -2.3044,-0.6474 0.1287,-1.8713 1.4579,-4.8307 2.5885,-1.8467 0,0 1.3574,0.6632 -0.2841,2.4941 z"
           inkscape:connector-curvature="0"
           style="fill:#a0a9c8;fill-rule:evenodd;stroke:#e4e6ef;stroke-width:0.69999999" />
        <path
           id="path1582"
           transform="translate(0,1036.4)"
           d="M 1.2852,7.5645 C 0.1902,8.5442 -0.0119,9.2878 0,9.8125 0.0087941,11.621 0.49894,12.888 1.2949,13.742 1.988,12.981 2.8804,11.957 3.0625,10.713 3.0617,9.25 2.3312,7.9839 1.2852,7.5645 Z"
           inkscape:connector-curvature="0"
           style="fill:#9da0c1" />
      </g>
    </mask>
  </defs>
  <rect
     style="opacity:0.93999999;fill:#9c99b0;fill-opacity:1;fill-rule:evenodd;stroke:none;stroke-width:0.68992865;stroke-miterlimit:4;stroke-dasharray:none;stroke-opacity:1"
     id="rect1521"
     width="16"
     height="16"
     x="0"
     y="0" />
  <rect
     style="opacity:0.93999999;fill:#ddd8ee;fill-opacity:1;fill-rule:evenodd;stroke:none;stroke-width:0.68992865;stroke-miterlimit:4;stroke-dasharray:none;stroke-opacity:1"
     id="rect1521-7"
     width="16"
     height="16"
     x="0"
     y="0"
     mask="url(#mask1574)" />
</svg>
