<?xml version="1.0" encoding="UTF-8" standalone="no"?>
<svg xmlns="http://www.w3.org/2000/svg" version="1.1" viewBox="0 0 16 16"><g transform="translate(0 -1036.4)"><path d="m12.627 1040.2s-2.8747-1.1157-8.3338 1.7678c-3.7984 2.0063-4.312 3.3962-4.2931 4.2302.028481 5.8575 5.0934 6.0636 9.3123 4.798 1.6018.1967 1.6099 1.389 1.6099 1.389h5.0778v-13.953l-.84780-.126z" fill-rule="evenodd" fill="#726d63"/><ellipse rx="1.8625" ry=".61556" transform="rotate(-19.624)" cy="984.99" cx="-341.95" fill="#32312e"/><path d="m14.931 1040.8s-.66291 2.3359-2.3044-.6474c.1287-1.8713 1.4579-4.8307 2.5885-1.8467 0 0 1.3574.6632-.28410 2.4941z" fill-rule="evenodd" stroke="#726d63" stroke-width="0.7" fill="#393631"/><path d="m1.2852 7.5645c-1.095.9797-1.2971 1.7233-1.2852 2.248.0087941 1.8085.49894 3.0755 1.2949 3.9295.6931-.761 1.5855-1.785 1.7676-3.029-.0008-1.463-.7313-2.7291-1.7773-3.1485z" transform="translate(0 1036.4)" fill="#32312e"/></g></svg>
